<svg xmlns="http://www.w3.org/2000/svg" width="1600" height="980" viewBox="0 0 1600 980">
  <defs>
    <style>
      .title { font: 700 30px 'Segoe UI', Arial, sans-serif; fill: #111827; }
      .label { font: 600 22px 'Segoe UI', Arial, sans-serif; fill: #111827; }
      .body { font: 500 19px 'Segoe UI', Arial, sans-serif; fill: #111827; }
      .boundary { fill: #fcfcfd; stroke: #374151; stroke-width: 2.5; }
      .usecase { fill: #f8fafc; stroke: #1f2937; stroke-width: 2; }
      .actor-line { stroke: #111827; stroke-width: 3; stroke-linecap: round; }
      .link { stroke: #4b5563; stroke-width: 2.2; fill: none; }
    </style>
  </defs>

  <rect width="1600" height="980" fill="#ffffff"/>
  <text x="800" y="54" text-anchor="middle" class="title">Learning and Classroom Services Use Case Diagram</text>

  <rect x="250" y="105" width="1100" height="790" rx="18" ry="18" class="boundary"/>
  <text x="800" y="142" text-anchor="middle" class="label">Eduverse Platform</text>

  <g transform="translate(90 210)">
    <circle cx="50" cy="28" r="22" fill="none" class="actor-line"/>
    <line x1="50" y1="50" x2="50" y2="118" class="actor-line"/>
    <line x1="16" y1="74" x2="84" y2="74" class="actor-line"/>
    <line x1="50" y1="118" x2="18" y2="170" class="actor-line"/>
    <line x1="50" y1="118" x2="82" y2="170" class="actor-line"/>
    <text x="50" y="208" text-anchor="middle" class="label">Teacher</text>
  </g>

  <g transform="translate(90 540)">
    <circle cx="50" cy="28" r="22" fill="none" class="actor-line"/>
    <line x1="50" y1="50" x2="50" y2="118" class="actor-line"/>
    <line x1="16" y1="74" x2="84" y2="74" class="actor-line"/>
    <line x1="50" y1="118" x2="18" y2="170" class="actor-line"/>
    <line x1="50" y1="118" x2="82" y2="170" class="actor-line"/>
    <text x="50" y="208" text-anchor="middle" class="label">Student</text>
  </g>

  <g transform="translate(1365 240)">
    <circle cx="50" cy="28" r="22" fill="none" class="actor-line"/>
    <line x1="50" y1="50" x2="50" y2="118" class="actor-line"/>
    <line x1="16" y1="74" x2="84" y2="74" class="actor-line"/>
    <line x1="50" y1="118" x2="18" y2="170" class="actor-line"/>
    <line x1="50" y1="118" x2="82" y2="170" class="actor-line"/>
    <text x="50" y="208" text-anchor="middle" class="label">Companion</text>
    <text x="50" y="235" text-anchor="middle" class="label">App User</text>
  </g>

  <g transform="translate(1365 600)">
    <circle cx="50" cy="28" r="22" fill="none" class="actor-line"/>
    <line x1="50" y1="50" x2="50" y2="118" class="actor-line"/>
    <line x1="16" y1="74" x2="84" y2="74" class="actor-line"/>
    <line x1="50" y1="118" x2="18" y2="170" class="actor-line"/>
    <line x1="50" y1="118" x2="82" y2="170" class="actor-line"/>
    <text x="50" y="208" text-anchor="middle" class="label">AI Agent /</text>
    <text x="50" y="235" text-anchor="middle" class="label">AI Service</text>
  </g>

  <ellipse cx="520" cy="230" rx="165" ry="52" class="usecase"/>
  <text x="520" y="223" text-anchor="middle" class="body">Access Class Workspace</text>
  <text x="520" y="248" text-anchor="middle" class="body">and Learning Context</text>

  <ellipse cx="860" cy="230" rx="170" ry="54" class="usecase"/>
  <text x="860" y="223" text-anchor="middle" class="body">Manage Classes and</text>
  <text x="860" y="248" text-anchor="middle" class="body">Learning Activities</text>

  <ellipse cx="1115" cy="230" rx="175" ry="54" class="usecase"/>
  <text x="1115" y="223" text-anchor="middle" class="body">Open Mobile Companion</text>
  <text x="1115" y="248" text-anchor="middle" class="body">Academic Workflows</text>

  <ellipse cx="520" cy="410" rx="168" ry="54" class="usecase"/>
  <text x="520" y="403" text-anchor="middle" class="body">Manage and Access</text>
  <text x="520" y="428" text-anchor="middle" class="body">Class Materials</text>

  <ellipse cx="860" cy="410" rx="170" ry="54" class="usecase"/>
  <text x="860" y="403" text-anchor="middle" class="body">Manage and Submit</text>
  <text x="860" y="428" text-anchor="middle" class="body">Assignments</text>

  <ellipse cx="1115" cy="410" rx="175" ry="54" class="usecase"/>
  <text x="1115" y="403" text-anchor="middle" class="body">Create and Participate</text>
  <text x="1115" y="428" text-anchor="middle" class="body">in Live Sessions</text>

  <ellipse cx="520" cy="610" rx="168" ry="54" class="usecase"/>
  <text x="520" y="603" text-anchor="middle" class="body">Create, Take, and Review</text>
  <text x="520" y="628" text-anchor="middle" class="body">Exams and Results</text>

  <ellipse cx="860" cy="610" rx="168" ry="54" class="usecase"/>
  <text x="860" y="603" text-anchor="middle" class="body">Use Chat and</text>
  <text x="860" y="628" text-anchor="middle" class="body">Notifications</text>

  <ellipse cx="1115" cy="610" rx="176" ry="54" class="usecase"/>
  <text x="1115" y="603" text-anchor="middle" class="body">Interact with AI Agent</text>
  <text x="1115" y="628" text-anchor="middle" class="body">for Learning Support</text>

  <ellipse cx="860" cy="785" rx="172" ry="54" class="usecase"/>
  <text x="860" y="778" text-anchor="middle" class="body">Use Integrated IDE</text>
  <text x="860" y="803" text-anchor="middle" class="body">for Programming Practice</text>

  <line x1="190" y1="295" x2="355" y2="250" class="link"/>
  <line x1="190" y1="322" x2="690" y2="230" class="link"/>
  <line x1="190" y1="349" x2="352" y2="404" class="link"/>
  <line x1="190" y1="376" x2="690" y2="410" class="link"/>
  <line x1="190" y1="403" x2="340" y2="598" class="link"/>
  <line x1="190" y1="430" x2="688" y2="778" class="link"/>

  <line x1="190" y1="625" x2="355" y2="445" class="link"/>
  <line x1="190" y1="652" x2="690" y2="445" class="link"/>
  <line x1="190" y1="679" x2="342" y2="620" class="link"/>
  <line x1="190" y1="706" x2="690" y2="620" class="link"/>
  <line x1="190" y1="733" x2="940" y2="785" class="link"/>
  <line x1="190" y1="760" x2="691" y2="803" class="link"/>

  <line x1="1365" y1="325" x2="1290" y2="246" class="link"/>
  <line x1="1365" y1="352" x2="1290" y2="424" class="link"/>
  <line x1="1365" y1="379" x2="1290" y2="610" class="link"/>

  <line x1="1365" y1="685" x2="1290" y2="610" class="link"/>
  <line x1="1365" y1="712" x2="1290" y2="430" class="link"/>
  <line x1="1365" y1="739" x2="1032" y2="785" class="link"/>
</svg>
